<?xml version="1.0" encoding="utf-8"?>
<!-- Generator: Adobe Illustrator 16.0.0, SVG Export Plug-In . SVG Version: 6.00 Build 0)  -->
<!DOCTYPE svg PUBLIC "-//W3C//DTD SVG 1.1//EN" "http://www.w3.org/Graphics/SVG/1.1/DTD/svg11.dtd">
<svg version="1.1" id="Layer_1" xmlns="http://www.w3.org/2000/svg" xmlns:xlink="http://www.w3.org/1999/xlink" x="0px" y="0px"
	 viewBox="0 0 22 22" enable-background="new 0 0 22 22" xml:space="preserve">

<g id="Layer_3">
	<path fill="#ffffff" d="M13.948,5.38c0.002-0.003,0.005-0.006,0.007-0.008c-0.06-0.017-0.876-0.208-1.232-0.266C12.608,5.087,11.469,4.953,11,4.953S9.393,5.087,9.278,5.105C8.921,5.164,8.104,5.354,8.045,5.372C8.047,5.374,8.049,5.377,8.052,5.38C3.362,6.736,0,11.259,0,16.793c0,0.409,0.018,0.817,0.054,1.216c0.054,0.605,0.594,1.051,1.193,0.998c0.605-0.055,1.052-0.589,0.998-1.193C2.215,17.479,2.2,17.137,2.2,16.793c0-4.995,3.303-8.982,7.697-9.561C9.992,7.22,10.723,7.153,11,7.153c0.277,0,1.007,0.067,1.101,0.08c4.396,0.577,7.7,4.565,7.7,9.561c0,0.344-0.016,0.687-0.045,1.021c-0.055,0.604,0.393,1.139,0.998,1.193c0.599,0.053,1.139-0.393,1.193-0.998C21.982,17.61,22,17.202,22,16.793C22,11.259,18.638,6.736,13.948,5.38z"/>
	<path fill="#ffffff" d="M3.823,4.419C3.406,4.66,8.199,16.397,8.958,17.713c0.76,1.315,1.954,1.413,3.006,0.805c1.052-0.607,1.564-1.689,0.806-3.005C12.01,14.197,4.241,4.178,3.823,4.419z"/>
</g>
</svg>
