<?xml version="1.0" encoding="utf-8"?>
<!-- Generator: Adobe Illustrator 18.0.0, SVG Export Plug-In . SVG Version: 6.00 Build 0)  -->
<!DOCTYPE svg PUBLIC "-//W3C//DTD SVG 1.1//EN" "http://www.w3.org/Graphics/SVG/1.1/DTD/svg11.dtd">
<svg version="1.1" xmlns="http://www.w3.org/2000/svg" xmlns:xlink="http://www.w3.org/1999/xlink" x="0px" y="0px"
	 viewBox="0 0 22 22" enable-background="new 0 0 22 22" xml:space="preserve">
<g>
	<path fill="#2b2b2b" d="M19.6,3.8L13,10.3l-0.3,0.3V11v6.1L9.2,18v-7v-0.4L9,10.3L2.4,3.8H19.6 M22,2.8H0L8.2,11v8.2l5.5-1.4V11L22,2.8L22,2.8z"/>
	<path fill="#2b2b2b" d="M13.3,5.3C11,5.3,9.6,6,6.5,6C6.2,6,6,6,5.8,6l4.2,4.2v6.5l2-0.4v-6.1l4.5-4.5C15.7,5.5,14.5,5.3,13.3,5.3z"/>
</g>
</svg>
