<?xml version="1.0" encoding="utf-8"?>
<!-- Generator: Adobe Illustrator 18.0.0, SVG Export Plug-In . SVG Version: 6.00 Build 0)  -->
<!DOCTYPE svg PUBLIC "-//W3C//DTD SVG 1.1//EN" "http://www.w3.org/Graphics/SVG/1.1/DTD/svg11.dtd">
<svg version="1.1" xmlns="http://www.w3.org/2000/svg" xmlns:xlink="http://www.w3.org/1999/xlink" x="0px" y="0px"
	 viewBox="0 0 22 22" enable-background="new 0 0 22 22" xml:space="preserve">
<g>
	<path fill="#2b2b2b" d="M18.8,11.6l-3.2-3.2h1.9c0,0,0-0.1-0.1-0.1c-1.1-2.8-3.8-4.8-7-4.8c-4.2,0-7.6,3.4-7.6,7.6c0,4.2,3.4,7.6,7.6,7.6c3.1,0,5.7-1.8,6.9-4.5c0,0,0-0.1,0-0.1l2,2c0,0,0,0.1,0,0.1c0,0,0,0,0,0c-1.8,3.1-5.1,5.2-9,5.2C4.6,21.4,0,16.7,0,11S4.6,0.6,10.4,0.6c4.8,0,8.8,3.2,10,7.6c0,0,0,0.1,0,0.1H22L18.8,11.6L18.8,11.6z"/>
</g>
</svg>
